<svg width="219" height="208" viewBox="0 0 219 208" fill="none" xmlns="http://www.w3.org/2000/svg">
<path d="M177.691 127.638L171.559 126.566L183.569 87.8029L189.697 88.873L177.691 127.638Z" fill="#808080" fill-opacity="0.8"/>
<path d="M173.328 135.763L167.197 134.692C169.152 132.315 170.632 129.55 171.559 126.566L177.691 127.638C176.763 130.621 175.283 133.386 173.328 135.763Z" fill="#858585" fill-opacity="0.8"/>
<path d="M189.697 88.8731L183.566 87.8018C185.367 81.9852 182.126 77.7604 178.002 76.4067C177.573 76.2659 177.131 76.1544 176.689 76.0765L182.821 77.1478C183.266 77.2268 183.705 77.3372 184.134 77.478C188.26 78.8361 191.502 83.0576 189.697 88.8731Z" fill="#858585" fill-opacity="0.8"/>
<path d="M179.362 60.1258L173.231 59.0545C175.52 58.8047 177.735 58.8819 179.85 59.2547L185.982 60.326C183.867 59.9531 181.652 59.8759 179.362 60.1258Z" fill="#8A8A8A" fill-opacity="0.8"/>
<path d="M167.265 87.1548L161.133 86.0835C160.896 86.0429 160.657 85.9833 160.424 85.9068L166.556 86.9781C166.792 87.0557 167.027 87.1142 167.265 87.1548Z" fill="#858585" fill-opacity="0.8"/>
<path d="M166.556 86.978L160.425 85.9034L158.21 85.1761L164.338 86.2463L166.556 86.978Z" fill="#808080" fill-opacity="0.8"/>
<path d="M149.306 165.054L143.176 163.979L167.197 134.692L173.328 135.763L149.306 165.054Z" fill="#838383" fill-opacity="0.8"/>
<path d="M143.501 197.862L137.369 196.791C136.896 196.707 136.422 196.588 135.952 196.434L142.084 197.506C142.553 197.66 143.027 197.778 143.501 197.862Z" fill="#858585" fill-opacity="0.8"/>
<path d="M160.952 79.1602L154.821 78.0856L157.627 69.0234L163.759 70.0947L160.952 79.1602Z" fill="#808080" fill-opacity="0.8"/>
<path d="M164.338 86.2463L158.206 85.1751C155.408 84.2526 153.891 81.0794 154.82 78.089L160.952 79.1603C160.026 82.1518 161.54 85.3239 164.338 86.2463Z" fill="#858585" fill-opacity="0.8"/>
<path d="M142.795 177.185L136.663 176.114C138.05 171.638 140.24 167.555 143.175 163.983L149.306 165.054C146.371 168.626 144.182 172.709 142.795 177.185Z" fill="#858585" fill-opacity="0.8"/>
<path d="M142.054 179.58L135.922 178.509L136.663 176.114L142.795 177.185L142.054 179.58Z" fill="#808080" fill-opacity="0.8"/>
<path d="M163.759 70.0947L157.627 69.0234C159.433 63.1933 156.205 58.9842 152.093 57.6305C151.664 57.4897 151.222 57.3782 150.777 57.2992L156.908 58.3705C157.354 58.4495 157.793 58.5599 158.225 58.7018C162.341 60.0566 165.564 64.2646 163.759 70.0947Z" fill="#858585" fill-opacity="0.8"/>
<path d="M150.548 41.8344L144.42 40.7643C147.568 40.0191 150.757 39.9451 153.821 40.4802L159.953 41.5515C156.885 41.0153 153.696 41.0892 150.548 41.8344Z" fill="#8A8A8A" fill-opacity="0.8"/>
<path d="M138.453 77.6668L132.321 76.5955C132.084 76.555 131.845 76.4953 131.612 76.4189L137.744 77.4901C137.977 77.5666 138.215 77.6263 138.453 77.6668Z" fill="#858585" fill-opacity="0.8"/>
<path d="M137.74 77.489L131.612 76.4189L129.394 75.6871L135.525 76.7618L137.74 77.489Z" fill="#808080" fill-opacity="0.8"/>
<path d="M132.136 69.6712L126.004 68.5999L130.252 54.8959L136.384 55.9672L132.136 69.6712Z" fill="#808080" fill-opacity="0.8"/>
<path d="M135.525 76.7617L129.393 75.6905C126.595 74.768 125.077 71.5948 126.003 68.6033L132.135 69.6746C131.209 72.6661 132.726 75.8393 135.525 76.7617Z" fill="#858585" fill-opacity="0.8"/>
<path d="M136.384 55.9672L130.252 54.8959C132.055 49.0726 128.821 44.85 124.699 43.493C124.27 43.3522 123.828 43.2406 123.386 43.1628L129.517 44.234C129.963 44.313 130.402 44.4235 130.831 44.5643C134.95 45.9201 138.188 50.1405 136.384 55.9672Z" fill="#858585" fill-opacity="0.8"/>
<path d="M116.248 30.5336L110.116 29.4624C111.9 28.3928 113.753 27.5811 115.634 27.0142L121.766 28.0854C119.885 28.6524 118.032 29.4641 116.248 30.5336Z" fill="#858585" fill-opacity="0.8"/>
<path d="M121.765 28.0854L115.634 27.0142C119.226 25.9292 122.923 25.7341 126.46 26.3536L132.592 27.4249C129.054 26.8053 125.355 26.996 121.765 28.0854Z" fill="#8A8A8A" fill-opacity="0.8"/>
<path d="M109.636 68.1811L103.504 67.1098C103.267 67.0693 103.028 67.0096 102.795 66.9331L108.927 68.0044C109.163 68.082 109.399 68.1405 109.636 68.1811Z" fill="#858585" fill-opacity="0.8"/>
<path d="M108.927 68.0044L102.796 66.9298L100.578 66.2014L106.709 67.2727L108.927 68.0044Z" fill="#808080" fill-opacity="0.8"/>
<path d="M103.323 60.1866L97.1911 59.1153L99.9976 50.0532L106.129 51.1245L103.323 60.1866Z" fill="#808080" fill-opacity="0.8"/>
<path d="M106.709 67.2727L100.578 66.2014C97.7791 65.279 96.2618 62.1057 97.1911 59.1153L103.323 60.1866C102.393 63.177 103.911 66.3503 106.709 67.2727Z" fill="#858585" fill-opacity="0.8"/>
<path d="M106.129 51.1245L99.9976 50.0532C101.803 44.2231 98.57 40.0084 94.4509 38.6525C94.022 38.5117 93.5798 38.4001 93.1377 38.3223L99.2694 39.3936C99.7148 39.4725 100.154 39.583 100.583 39.7238C104.702 41.0797 107.935 45.2944 106.129 51.1245Z" fill="#858585" fill-opacity="0.8"/>
<path d="M142.084 197.506L135.952 196.434L56.1578 170.166L62.2861 171.236L142.084 197.506Z" fill="#808080" fill-opacity="0.8"/>
<path d="M71.463 88.8847L65.3313 87.8134C65.0906 87.7718 64.8554 87.7132 64.6258 87.6379C63.4438 87.2498 62.3955 86.42 61.7118 85.2092L67.8435 86.2805C68.5272 87.4913 69.5788 88.3222 70.7575 88.7091C70.9871 88.7845 71.2257 88.8442 71.463 88.8847Z" fill="#858585" fill-opacity="0.8"/>
<path d="M62.2862 171.236L56.1545 170.165C50.5562 168.323 47.5251 161.978 49.3813 155.992C52.2486 146.734 52.8069 146.218 51.8477 144.525L57.9794 145.596C58.9375 147.293 58.3792 147.808 55.513 157.064C53.6612 163.047 56.6913 169.395 62.2862 171.236Z" fill="#858585" fill-opacity="0.8"/>
<path d="M74.8243 39.589L68.6926 38.5177C71.6534 29.9769 78.0366 24.4129 85.2502 22.2338L91.3819 23.3051C84.1649 25.483 77.7806 31.0505 74.8243 39.589Z" fill="#858585" fill-opacity="0.8"/>
<path d="M91.3785 23.3039L85.2468 22.2327C88.8401 21.1443 92.6422 20.9016 96.3295 21.5441L102.461 22.6154C98.775 21.9695 94.9752 22.2167 91.3785 23.3039Z" fill="#8A8A8A" fill-opacity="0.8"/>
<path d="M67.8435 86.2804L61.7118 85.2092L60.1335 82.4156L66.2652 83.4869L67.8435 86.2804Z" fill="#808080" fill-opacity="0.8"/>
<path d="M65.7937 78.8262L59.662 77.7549L63.9873 63.7923L70.119 64.8636L65.7937 78.8262Z" fill="#808080" fill-opacity="0.8"/>
<path d="M66.2652 83.487L60.1335 82.4157C59.3478 81.0257 59.1764 79.3254 59.662 77.7549L65.7937 78.8262C65.3047 80.3956 65.4795 82.0969 66.2652 83.487Z" fill="#858585" fill-opacity="0.8"/>
<path d="M70.119 64.8636L63.9873 63.7923C65.7859 57.9825 62.5394 53.7521 58.4102 52.3929C57.9813 52.2521 57.5391 52.1405 57.097 52.0627L63.2287 53.134C63.6741 53.2129 64.113 53.3234 64.5419 53.4642C68.6677 54.8223 71.9176 59.0538 70.119 64.8636Z" fill="#858585" fill-opacity="0.8"/>
<path d="M57.9794 145.596L51.8488 144.521L29.8374 105.518L35.9691 106.589L57.9794 145.596Z" fill="#808080" fill-opacity="0.8"/>
<path d="M38.5251 54.2084L32.3934 53.1371C35.1258 44.3234 41.7244 38.2285 49.3543 35.9208L55.486 36.9921C47.8561 39.2998 41.2541 45.3936 38.5251 54.2084Z" fill="#858585" fill-opacity="0.8"/>
<path d="M55.4826 36.991L49.351 35.9197C52.8489 34.8598 56.5632 34.5995 60.2213 35.2399L66.353 36.3112C62.6983 35.6719 58.984 35.9322 55.4826 36.991Z" fill="#8A8A8A" fill-opacity="0.8"/>
<path d="M32.547 73.5019L26.4153 72.4306L32.3934 53.1371L38.525 54.2084L32.547 73.5019Z" fill="#808080" fill-opacity="0.8"/>
<path d="M35.969 106.59L29.8373 105.518C24.2293 95.5807 22.9816 83.5176 26.4187 72.4318L32.5504 73.5031C29.1133 84.5888 30.361 96.652 35.969 106.59Z" fill="#858585" fill-opacity="0.8"/>
<path d="M189.183 61.1266C201.558 65.1998 209.349 79.508 204.894 93.8764L192.883 132.64C191.268 137.856 188.716 142.612 185.302 146.778L161.28 176.068C158.478 179.487 158.043 182.042 155.575 190.004C153.724 195.987 147.682 199.347 142.084 197.506L62.2863 171.236C56.688 169.394 53.6569 163.049 55.5131 157.064C58.3804 147.805 58.9387 147.289 57.9795 145.596L35.9692 106.589C30.3611 96.652 29.1134 84.5888 32.5505 73.5031L38.5285 54.2096C42.8848 40.1526 57.0836 33.0031 69.6063 37.125C71.3883 37.7138 73.1401 38.5317 74.8244 39.589C79.6965 25.522 93.8651 19.5245 105.731 23.4348C109.621 24.7153 113.265 27.0623 116.249 30.5303C122.519 26.7822 129.608 26.18 135.88 28.2466C142.116 30.3009 147.543 34.9893 150.552 41.8355C154.848 40.8172 159.219 41.0526 163.247 42.3786C170.762 44.8531 177.063 51.1287 179.366 60.1269C182.837 59.7419 186.148 60.1266 189.183 61.1266ZM177.691 127.638L189.701 88.8742C191.502 83.0576 188.261 78.8328 184.137 77.4791C180.028 76.1266 175.041 77.6205 173.305 83.2268C172.378 86.2217 169.358 87.9016 166.559 86.9792L164.342 86.2475C161.543 85.325 160.026 82.1518 160.955 79.1614L163.761 70.0992C165.567 64.2691 162.339 60.06 158.227 58.7063C154.108 57.3504 149.103 58.8534 147.369 64.453L144.491 73.7456C143.564 76.7405 140.544 78.4204 137.745 77.498L135.527 76.7663C132.729 75.8438 131.211 72.6706 132.137 69.6791L136.382 55.974C138.185 50.1506 134.951 45.928 130.828 44.571C126.716 43.2174 121.727 44.718 119.989 50.3199L115.671 64.2588C114.744 67.2537 111.724 68.9336 108.925 68.0112L106.707 67.2795C103.909 66.357 102.391 63.1838 103.321 60.1934L106.126 51.1346C107.931 45.3045 104.698 41.0898 100.579 39.7339C96.4636 38.3791 91.4663 39.8809 89.7318 45.4839L77.4992 84.9703C77.0921 86.2789 76.2615 87.3961 75.1524 88.1193C73.7711 89.0222 72.1715 89.1883 70.7565 88.7238C69.5744 88.3357 68.5262 87.5059 67.8425 86.2951L66.2642 83.5016C65.4785 82.1115 65.3071 80.4113 65.7927 78.8408L70.118 64.8782C71.9167 59.0684 68.6701 54.838 64.5409 53.4788C60.4354 52.1273 55.4605 53.6178 53.7238 59.2275L47.7469 78.5177C45.7701 84.9043 46.498 91.8723 49.7488 97.6285L71.7591 136.635C74.5654 141.602 75.1898 147.632 73.4707 153.177L72.391 156.66L142.053 179.595L142.794 177.2C144.181 172.723 146.37 168.641 149.305 165.069L173.327 135.778C175.284 133.386 176.763 130.621 177.691 127.638Z" fill="white"/>
</svg>
